<?xml version="1.0" standalone="no"?>
<!DOCTYPE svg PUBLIC "-//W3C//DTD SVG 20010904//EN"
 "http://www.w3.org/TR/2001/REC-SVG-20010904/DTD/svg10.dtd">
<svg version="1.0" xmlns="http://www.w3.org/2000/svg"
 width="504.000000pt" height="360.000000pt" viewBox="0 0 504.000000 360.000000"
 preserveAspectRatio="xMidYMid meet">

<g transform="translate(0.000000,360.000000) scale(0.100000,-0.100000)"
fill="#000000" stroke="none">
<path d="M2349 3324 c-359 -65 -654 -324 -745 -655 -19 -70 -26 -285 -11 -371
l8 -48 248 0 c136 0 250 3 253 6 4 3 0 21 -8 39 -7 19 -17 65 -20 103 -21 228
149 442 384 482 227 38 444 -118 484 -348 9 -55 9 -84 -1 -138 -22 -120 -51
-167 -175 -284 -264 -249 -382 -392 -467 -565 -58 -118 -79 -195 -79 -287 l0
-68 238 0 238 0 16 70 c34 144 95 234 284 420 221 218 365 425 424 615 30 95
38 273 17 372 -35 162 -98 274 -227 403 -139 139 -288 216 -490 254 -99 19
-267 19 -371 0z"/>
<path d="M2342 969 c-71 -28 -144 -101 -171 -174 -25 -68 -27 -162 -5 -228 20
-61 93 -141 158 -175 44 -23 63 -27 141 -27 75 0 97 4 135 24 61 32 117 86
148 146 23 43 27 62 27 140 0 107 -19 156 -91 228 -83 84 -223 111 -342 66z"/>
</g>
</svg>
